#!OML:ASF F:\VICON\USERDATA\INSTALL\rory3\rory3.ASF
:FULLY-SPECIFIED
:DEGREES
389
root 0.0326115 19.0363 -25.9545 -124.477 -22.932 -221.499
lowerback -24.8774 -8.62932 -21.5941
upperback -15.3927 -13.2365 -11.9352
thorax -4.1654 -8.58958 -4.12491
lowerneck -14.3462 3.65043 -11.4133
upperneck -48.3164 -12.2137 -4.21393
head -15.7769 -6.64843 2.03313
rclavicle 1.59525e-014 3.81667e-014
rhumerus -14.7916 -13.3268 37.5569
rradius 16.5721
rwrist 24.7976
rhand 5.22434 -4.03791
rfingers 7.12502
rthumb 30.5839 -31.5178
lclavicle 1.59525e-014 3.81667e-014
lhumerus 14.1186 -17.9985 -28.9858
lradius 20.3922
lwrist -36.0691
lhand 21.6259 34.7097
lfingers 7.12502
lthumb 46.0466 57.7848
rfemur -32.6797 37.4944 -35.4981
rtibia 8.64099
rfoot -90.0662 -20.2189
rtoes 60.7411
lfemur 22.547 -18.093 7.70745
ltibia 42.7534
lfoot 46.6523 31.5234
ltoes 6.55893
390
root 0.0456596 19.0009 -26.0176 -124.802 -24.2333 -220.488
lowerback -24.3216 -8.18264 -19.3371
upperback -15.5937 -13.0996 -11.7711
thorax -4.68442 -8.53644 -4.7907
lowerneck -15.6181 2.53377 -11.6723
upperneck -45.7596 -11.7726 -3.70221
head -13.9816 -6.52696 2.00973
rclavicle 1.43622e-014 1.26626e-013
rhumerus -14.9568 -14.4849 37.0206
rradius 16.4835
rwrist 25.4479
rhand 4.96997 -3.4927
rfingers 7.12502
rthumb 30.3413 -31.0176
lclavicle 1.43622e-014 1.26626e-013
lhumerus 13.7733 -18.2943 -28.251
lradius 20.3689
lwrist -37.8253
lhand 21.7739 34.233
lfingers 7.12502
lthumb 46.1839 57.2506
rfemur -32.856 37.47 -32.8668
rtibia 9.24712
rfoot -91.0963 -22.2489
rtoes 60.4598
lfemur 21.7478 -17.8343 9.66241
ltibia 41.8221
lfoot 8.09355 -54.8975
ltoes -60.6994
391
root 0.0689003 18.9515 -26.0582 -125.099 -24.0164 -220.46
lowerback -23.5678 -8.05461 -19.2137
upperback -15.6211 -13.1109 -11.7256
thorax -5.02002 -8.489 -4.65737
lowerneck -17.2873 1.45559 -11.8974
upperneck -42.7986 -11.1718 -3.0856
head -12.106 -6.37507 1.98354
rclavicle -2.38045e-014 -3.77691e-015
rhumerus -14.9797 -13.2859 35.7972
rradius 16.9917
rwrist 23.3449
rhand 4.89721 -3.90672
rfingers 7.12502
rthumb 30.2719 -31.4444
lclavicle -2.38045e-014 -3.77691e-015
lhumerus 13.2657 -21.0135 -28.5165
lradius 20.289
lwrist -37.1618
lhand 21.3364 34.0377
lfingers 7.12502
lthumb 45.7779 57.2242
rfemur -33.0024 37.5761 -32.3646
rtibia 9.66197
rfoot -92.3684 -23.3978
rtoes 60.3143
lfemur 21.1458 -17.5537 9.16984
ltibia 41.0663
lfoot -3.73223 -55.7636
ltoes -59.1873
392
root 0.0917242 18.893 -26.0949 -125.549 -24.1347 -220.159
lowerback -23.1828 -8.12521 -18.8583
upperback -15.5174 -13.2249 -11.5147
thorax -5.0187 -8.49873 -4.5762
lowerneck -19.2712 0.525491 -11.6655
upperneck -39.3862 -10.4295 -2.64539
head -10.1992 -6.2115 1.79115
rclavicle -7.8669e-014 -8.05078e-014
rhumerus -14.8105 -17.1551 34.8006
rradius 17.0671
rwrist 26.2518
rhand 5.08911 -3.5782
rfingers 7.12502
rthumb 30.455 -31.0821
lclavicle -7.8669e-014 -8.05078e-014
lhumerus 13.342 -25.9685 -29.8263
lradius 20.2614
lwrist -34.5543
lhand 21.3504 34.646
lfingers 7.12502
lthumb 45.791 57.827
rfemur -33.0231 37.7924 -31.2828
rtibia 9.98197
rfoot -94.1752 -22.3623
rtoes 60.7338
lfemur 20.7549 -17.5798 8.97175
ltibia 40.0475
lfoot 7.06394 -54.6872
ltoes -60.2548
393
root 0.112831 18.8475 -26.1578 -126.054 -24.4096 -219.681
lowerback -22.2876 -7.83765 -17.949
upperback -15.6122 -13.1595 -11.4418
thorax -5.54923 -8.43581 -4.72218
lowerneck -21.5542 -0.722653 -11.2361
upperneck -35.0199 -10.0361 -2.57647
head -8.079 -6.17078 1.40112
rclavicle 3.4191e-014 9.20373e-014
rhumerus -14.8238 -22.7624 34.3798
rradius 16.5316
rwrist 31.0367
rhand 4.68799 -2.14619
rfingers 7.12502
rthumb 30.0723 -29.7203
lclavicle 3.4191e-014 9.20373e-014
lhumerus 13.4542 -28.9232 -30.1448
lradius 20.4653
lwrist -34.0046
lhand 22.043 35.0839
lfingers 7.12502
lthumb 46.4333 57.9958
rfemur -33.3705 38.091 -29.8825
rtibia 10.9036
rfoot -96.2493 -22.4369
rtoes 60.7796
lfemur 20.1597 -17.8987 8.91574
ltibia 39.2423
lfoot 36.0004 42.5895
ltoes 23.1038
394
root 0.126174 18.7899 -26.1724 -125.913 -24.5632 -219.618
lowerback -22.4706 -7.8677 -17.5801
upperback -15.4749 -13.0935 -11.3573
thorax -5.30759 -8.40693 -4.8523
lowerneck -24.198 -2.04361 -10.6994
upperneck -30.0238 -9.814 -2.77166
head -5.89839 -6.19761 0.897564
rclavicle 2.90723e-015 2.18663e-014
rhumerus -14.848 -16.1653 32.1501
rradius 17.3746
rwrist 23.1339
rhand 3.40731 -2.54523
rfingers 7.12502
rthumb 28.8497 -30.3347
lclavicle 2.90723e-015 2.18663e-014
lhumerus 11.0628 -26.3627 -27.6757
lradius 20.7583
lwrist -38.6269
lhand 21.9933 34.1466
lfingers 7.12502
lthumb 46.3872 57.0782
rfemur -33.5704 37.3462 -28.9357
rtibia 11.2125
rfoot -97.7539 -22.3277
rtoes 60.8907
lfemur 18.8789 -16.8993 8.96316
ltibia 38.491
lfoot 28.3935 45.724
ltoes 29.8816
